# xmcd
# 
# Track frame offsets:
#     150
#     13888
#     29352
#     42653
#     55917
#     69292
#     83160
#     99125
#     113619
#     127231
#     144401
#     158678
#     172636
#     189095
#     202330
#     215202
#     228453
#     239612
# 
# Disc length: 3403
# 
# Revision: 1
# Processed by: cddbd v1.5.2PL0 Copyright (c) Steve Scherf et al.
# Submitted via: BonkEnc v1.0
# 
DISCID=f90d4912
DTITLE=César Menotti and Fabiano - .com_voce
DYEAR=2007
DGENRE=Country
TTITLE0=www. Volta Pra Mim
TTITLE1=Caso Por Acaso
TTITLE2=Coração De Papel
TTITLE3=Talvez
TTITLE4=Gabriela
TTITLE5=Tempo Para Amar
TTITLE6=Foi Tudo Engano
TTITLE7=Do Lado Esquerdo
TTITLE8=E Eu
TTITLE9=Segura Na Mão De Deus
TTITLE10=Galera Do Bem
TTITLE11=Vem Tomar Café Comigo
TTITLE12=De Frente Pro Sol
TTITLE13=Saudade De Minas
TTITLE14=Nóis Bebe É Guarana
TTITLE15=Vem Me Amar
TTITLE16=Sincero Amor
TTITLE17=Sertaneja (Faixa Bonus)
EXTD=
EXTT0=
EXTT1=
EXTT2=
EXTT3=
EXTT4=
EXTT5=
EXTT6=
EXTT7=
EXTT8=
EXTT9=
EXTT10=
EXTT11=
EXTT12=
EXTT13=
EXTT14=
EXTT15=
EXTT16=
EXTT17=
PLAYORDER=
